# xmcd
# 
# Track frame offsets:
#     150
#     13890
#     27850
#     41335
#     55232
#     68275
#     80875
#     95135
#     109420
#     122530
#     135592
#     149785
#     163210
#     175727
#     187015
#     199312
#     213050
#     225812
#     239162
#     251875
#     265902
#     277702
#     290872
#     304495
# 
# Disc length: 4235
# 
# Revision: 4
# Processed by: cddbd v1.5.2PL0 Copyright (c) Steve Scherf et al.
# Submitted via: fre:ac v1.0.17
# 
DISCID=6f108918
DTITLE=ΧΡΗΣΤΑΚΗΣ - ΠΑΙΖΟΥΝ ΤΑ ΜΠΑΓΛΑΜΑΔΑΚΙΑ
DYEAR=1994
DGENRE=Folklore
TTITLE0=ΠΑΙΖΟΥΝ ΤΑ ΜΠΑΓΛΑΜΑΔΑΚΙΑ
TTITLE1=ΤΟ ΠΟΥΛΙ
TTITLE2=ΣΤΙΣ ΤΑΒΕΡΝΕΣ ΤΡΙΓΥΡΝΑΣ
TTITLE3=Ο ΠΑΡΑΜΥΘΑΣ
TTITLE4=ΝΑ ΧΑΡΕΙΣ ΤΑ ΜΑΤΙΑ ΣΟΥ ΚΑΛΕ
TTITLE5=ΤΟ ΚΟΡΟΪΔΟ ΤΗΣ ΜΑΡΙΑΣ
TTITLE6=ΕΜΑΘΑ ΠΩΣ ΕΙΣΑΙ ΜΑΓΚΑΣ
TTITLE7=Η ΓΑΤΑ (ΕΔΙΩΞΑ ΚΑΙ ΕΓΩ ΜΙΑ ΓΑΤΑ)
TTITLE8=ΣΟΥ 'ΧΑ ΧΑΡΙΣΕΙ ΤΗΝ ΚΑΡΔΙΑ
TTITLE9=ΒΑΛΕ ΜΕ ΦΩΣ ΜΟΥ ΒΑΛΕ ΜΕ
TTITLE10=ΝΑ ΣΕ ΧΑΡΕΙ Η ΜΑΝΑ ΣΟΥ
TTITLE11=ΠΗΡΑ ΤΟ ΔΡΟΜΟ ΤΟ ΣΤΕΡΝΟ
TTITLE12=ΚΟΙΤΑ ΡΕ ΤΙ ΕΠΑΘΑ
TTITLE13=ΔΙΑΖΥΓΙΟ ΘΑ ΠΑΡΩ
TTITLE14=ΠΑΡΕ Τ' ΑΠΟΛΥΤΗΡΙΟ
TTITLE15=ΚΟΙΜΟΜΟΥΝ ΚΙ ΟΝΕΙΡΕΥΤΗΚΑ
TTITLE16=ΣΕ ΓΕΛΑΣΑΝΕ
TTITLE17=ΒΟΤΣΑΛΑΚΙΑ ΒΟΤΣΑΛΑΚΙΑ
TTITLE18=ΤΟ ΤΑΒΕΡΝΑΚΙ
TTITLE19=ΑΝ ΕΙΧΑ ΚΟΣΜΕ ΤΑΛΛΗΡΑ
TTITLE20=ΣΤΑΜΑΤΗΣΕ ΤΗ ΓΚΡΙΝΙΑ
TTITLE21=ΤΟ ΚΟΚΚΟΡΑΚΙ
TTITLE22=ΔΥΟ ΚΑΡΠΟΥΖΙΑ
TTITLE23=ΜΠΟΥΖΟΥΚΟΜΑΝΙΑ
EXTD=
EXTT0=
EXTT1=
EXTT2=
EXTT3=
EXTT4=
EXTT5=
EXTT6=
EXTT7=
EXTT8=
EXTT9=
EXTT10=
EXTT11=
EXTT12=
EXTT13=
EXTT14=
EXTT15=
EXTT16=
EXTT17=
EXTT18=
EXTT19=
EXTT20=
EXTT21=
EXTT22=
EXTT23=
PLAYORDER=
